<svg id="Capa_1" enable-background="new 0 0 497 497" height="512" viewBox="0 0 497 497" width="512" xmlns="http://www.w3.org/2000/svg"><g><g><g><path d="m480.484 493h-463.968c-9.121 0-16.516-7.395-16.516-16.516v-455.968c0-9.121 7.395-16.516 16.516-16.516h463.968c9.122 0 16.516 7.395 16.516 16.516v455.967c0 9.122-7.394 16.517-16.516 16.517z" fill="#766d78"/></g></g><g><g><path d="m480.484 4h-30c9.121 0 16.516 7.395 16.516 16.516v455.967c0 9.122-7.395 16.516-16.516 16.516h30c9.122 0 16.516-7.395 16.516-16.516v-455.967c0-9.121-7.395-16.516-16.516-16.516z" fill="#655e67"/></g></g><g><g><path d="m243.601 373.961-69.393 37.192c-2.929 1.57-4.758 4.624-4.758 7.948v17.273c0 6.815 7.27 11.167 13.277 7.948l60.874-32.626c2.215-1.187 4.877-1.187 7.092 0l60.874 32.626c6.007 3.219 13.277-1.132 13.277-7.948v-17.273c0-3.323-1.828-6.378-4.757-7.948l-69.393-37.192c-2.216-1.187-4.878-1.187-7.093 0z" fill="#b1abb4"/></g></g><g><g><path d="m242.285 341.91-22.276 29.092c-1.61 2.103-2.483 4.678-2.483 7.326v41.599c0 6.655 5.395 12.051 12.05 12.051h35.141c6.655 0 12.05-5.395 12.05-12.051v-41.599c0-2.648-.872-5.223-2.483-7.326l-22.276-29.092c-2.45-3.201-7.272-3.201-9.723 0z" fill="#f7f7f7"/></g></g><g><g><path d="m276.767 388.612v-10.283c0-2.648-.872-5.223-2.483-7.326l-22.276-29.092c-2.451-3.201-7.273-3.201-9.724 0l-22.276 29.092c-1.61 2.103-2.483 4.678-2.483 7.326v10.283z" fill="#c8c3ca"/></g></g><g><g><path d="m135.115 82.682c-1.194-18.248-16.363-32.682-34.913-32.682s-33.719 14.434-34.912 32.682z" fill="#88f2a9"/></g></g><g><g><path d="m135.115 163.93c-1.193-18.248-16.363-32.682-34.912-32.682s-33.72 14.434-34.913 32.682z" fill="#88f2a9"/></g></g><g><g><path d="m283.412 82.682c-1.193-18.248-16.363-32.682-34.912-32.682s-33.719 14.434-34.912 32.682z" fill="#88f2a9"/></g></g><g><g><path d="m431.71 82.682c-1.193-18.248-16.363-32.682-34.912-32.682s-33.719 14.434-34.912 32.682z" fill="#88f2a9"/></g></g><g><g><path d="m431.71 163.93c-1.193-18.248-16.363-32.682-34.912-32.682s-33.719 14.434-34.912 32.682z" fill="#88f2a9"/></g></g><g><g><path d="m446.269 407.033c-5.397 0-10.171 2.655-13.098 6.725-2.928-4.071-7.701-6.725-13.098-6.725-8.908 0-16.129 7.221-16.129 16.129 0 3.669 1.225 7.052 3.289 9.762 2.934 3.852 18.239 18.248 25.939 22.372 7.699-4.125 23.005-18.52 25.938-22.372 2.064-2.71 3.289-6.093 3.289-9.762-.001-8.908-7.222-16.129-16.13-16.129z" fill="#dc4955"/></g></g><g><g><path d="m446.269 323.796c-5.397 0-10.171 2.655-13.098 6.725-2.928-4.071-7.701-6.725-13.098-6.725-8.908 0-16.129 7.221-16.129 16.129 0 3.669 1.225 7.052 3.289 9.762 2.934 3.853 18.239 18.248 25.939 22.373 7.699-4.125 23.005-18.52 25.938-22.373 2.064-2.71 3.289-6.093 3.289-9.762-.001-8.907-7.222-16.129-16.13-16.129z" fill="#dc4955"/></g></g><g><g><g><path d="m248.5 296.947c-4.142 0-7.5-3.358-7.5-7.5v-3c0-4.142 3.358-7.5 7.5-7.5 4.143 0 7.5 3.358 7.5 7.5v3c0 4.142-3.357 7.5-7.5 7.5z" fill="#655e67"/></g></g><g><g><path d="m248.5 258.587c-4.142 0-7.5-3.358-7.5-7.5v-5.304c0-4.142 3.358-7.5 7.5-7.5 4.143 0 7.5 3.358 7.5 7.5v5.304c0 4.143-3.357 7.5-7.5 7.5zm0-40.664c-4.142 0-7.5-3.358-7.5-7.5v-5.304c0-4.142 3.358-7.5 7.5-7.5 4.143 0 7.5 3.358 7.5 7.5v5.304c0 4.142-3.357 7.5-7.5 7.5zm0-40.664c-4.142 0-7.5-3.358-7.5-7.5v-5.304c0-4.142 3.358-7.5 7.5-7.5 4.143 0 7.5 3.358 7.5 7.5v5.304c0 4.142-3.357 7.5-7.5 7.5z" fill="#655e67"/></g></g><g><g><path d="m248.5 136.596c-4.142 0-7.5-3.358-7.5-7.5v-3c0-4.142 3.358-7.5 7.5-7.5 4.143 0 7.5 3.358 7.5 7.5v3c0 4.142-3.357 7.5-7.5 7.5z" fill="#655e67"/></g></g></g><g><g><path d="m152.3 90.182h-104.196c-4.142 0-7.5-3.358-7.5-7.5s3.358-7.5 7.5-7.5h104.196c4.142 0 7.5 3.358 7.5 7.5s-3.358 7.5-7.5 7.5z" fill="#64b07d"/></g></g><g><g><path d="m152.3 171.43h-104.196c-4.142 0-7.5-3.358-7.5-7.5s3.358-7.5 7.5-7.5h104.196c4.142 0 7.5 3.358 7.5 7.5s-3.358 7.5-7.5 7.5z" fill="#64b07d"/></g></g><g><g><path d="m300.598 90.182h-104.196c-4.142 0-7.5-3.358-7.5-7.5s3.358-7.5 7.5-7.5h104.196c4.143 0 7.5 3.358 7.5 7.5s-3.357 7.5-7.5 7.5z" fill="#64b07d"/></g></g><g><g><path d="m448.896 90.182h-104.197c-4.143 0-7.5-3.358-7.5-7.5s3.357-7.5 7.5-7.5h104.196c4.143 0 7.5 3.358 7.5 7.5.001 4.142-3.357 7.5-7.499 7.5z" fill="#64b07d"/></g></g><g><g><path d="m448.896 171.43h-104.197c-4.143 0-7.5-3.358-7.5-7.5s3.357-7.5 7.5-7.5h104.196c4.143 0 7.5 3.358 7.5 7.5s-3.357 7.5-7.499 7.5z" fill="#64b07d"/></g></g></g></svg>