<svg height="512" viewBox="0 0 128 128" width="512" xmlns="http://www.w3.org/2000/svg"><g id="Circle_Grid" data-name="Circle Grid"><circle cx="64" cy="64" fill="#f6c863" r="64"/></g><g id="icon"><rect fill="#eeefee" height="3.374" rx="1.687" width="53.366" x="37.317" y="98.299"/><path d="m52.709 88.176h22.582v3.374h-22.582z" fill="#eeefee" transform="matrix(0 1 -1 0 153.863 25.863)"/><rect fill="#575b6d" height="10.028" rx="1.865" width="10.028" x="58.986" y="94.972"/><path d="m36.146 62.266h55.708v4.642h-55.708z" fill="#414451"/><path d="m36.146 40.622h55.708v4.642h-55.708z" fill="#414451"/><rect fill="#575b6d" height="19.034" rx="1.857" width="73.813" x="27.093" y="44.509"/><g fill="#414451"><path d="m94.098 48.397h2.012v11.799h-2.012z"/><path d="m88.469 48.397h2.012v11.799h-2.012z"/><path d="m82.84 48.397h2.012v11.799h-2.012z"/><path d="m77.211 48.397h2.012v11.799h-2.012z"/><path d="m71.582 48.397h2.012v11.799h-2.012z"/><path d="m65.954 48.397h2.012v11.799h-2.012z"/><path d="m60.325 48.397h2.012v11.799h-2.012z"/></g><circle cx="34.773" cy="54.297" fill="#2cbfae" r="2.766"/><circle cx="44.638" cy="54.297" fill="#ef5261" r="2.766"/><rect fill="#575b6d" height="19.034" rx="1.857" width="73.813" x="27.093" y="23"/><path d="m94.098 26.888h2.012v11.799h-2.012z" fill="#414451"/><path d="m88.469 26.888h2.012v11.799h-2.012z" fill="#414451"/><path d="m82.84 26.888h2.012v11.799h-2.012z" fill="#414451"/><path d="m77.211 26.888h2.012v11.799h-2.012z" fill="#414451"/><path d="m71.582 26.888h2.012v11.799h-2.012z" fill="#414451"/><path d="m65.954 26.888h2.012v11.799h-2.012z" fill="#414451"/><path d="m60.325 26.888h2.012v11.799h-2.012z" fill="#414451"/><circle cx="34.773" cy="32.788" fill="#2cbfae" r="2.766"/><circle cx="44.638" cy="32.788" fill="#ef5261" r="2.766"/><rect fill="#575b6d" height="19.034" rx="1.857" width="73.813" x="27.093" y="66.019"/><path d="m94.098 69.907h2.012v11.799h-2.012z" fill="#414451"/><path d="m88.469 69.907h2.012v11.799h-2.012z" fill="#414451"/><path d="m82.84 69.907h2.012v11.799h-2.012z" fill="#414451"/><path d="m77.211 69.907h2.012v11.799h-2.012z" fill="#414451"/><path d="m71.582 69.907h2.012v11.799h-2.012z" fill="#414451"/><path d="m65.954 69.907h2.012v11.799h-2.012z" fill="#414451"/><path d="m60.325 69.907h2.012v11.799h-2.012z" fill="#414451"/><circle cx="34.773" cy="75.806" fill="#2cbfae" r="2.766"/><circle cx="44.638" cy="75.806" fill="#ef5261" r="2.766"/></g></svg>